# xmcd CD database file
#
# Track frame offsets:
#	150
#	9774
#	27467
#	41220
#	59303
#	77643
#	94150
#	112415
#	134687
#	147967
#	166720
#	179273
#
# Disc length: 2538 seconds
#
# Revision: 0
# Processed by: cddbd v1.5.2PL0 Copyright (c) Steve Scherf et al.
# Submitted via: CDex 1.51
#
DISCID=a209e80c
DTITLE=Groanbox Boys - Fences Come Down
DYEAR=2007
DGENRE=Blues
TTITLE0=Lightning on the creek
TTITLE1=Long for day
TTITLE2=Fences
TTITLE3=Proud Papa
TTITLE4=The spider and the stone
TTITLE5=Les etoiles et les cigales
TTITLE6=Darling Lou
TTITLE7=Red Hook Revival
TTITLE8=Boxcar and a bottle of wine
TTITLE9=Little Sadie
TTITLE10=Drink the magic potion
TTITLE11=March within the woods
EXTD=YEAR: 2007
EXTT0=
EXTT1=
EXTT2=
EXTT3=
EXTT4=
EXTT5=
EXTT6=
EXTT7=
EXTT8=
EXTT9=
EXTT10=
EXTT11=
PLAYORDER=
